<svg width="19" height="19" viewBox="0 0 19 19" fill="none" xmlns="http://www.w3.org/2000/svg">
<path d="M12.9482 7.52359C12.3308 5.99513 10.833 4.91667 9.08333 4.91667C6.78215 4.91667 4.91667 6.78215 4.91667 9.08333C4.91667 10.833 5.99513 12.3308 7.52359 12.9482M9.01296 17.4164C4.44299 17.3786 0.75 13.6622 0.75 9.08333C0.75 4.48096 4.48096 0.75 9.08333 0.75C13.6622 0.75 17.3786 4.44299 17.4164 9.01296M9.13108 10.2696L11.3083 16.8012C11.5818 17.6218 12.7425 17.6218 13.0161 16.8012L13.82 14.3893C13.9096 14.1205 14.1205 13.9096 14.3893 13.82L16.8012 13.0161C17.6218 12.7425 17.6218 11.5818 16.8012 11.3083L10.2696 9.13108C9.56596 8.89653 8.89653 9.56596 9.13108 10.2696Z" stroke="#8A8A8A" stroke-width="1.5" stroke-linecap="round" stroke-linejoin="round"/>
</svg>
